<?xml version="1.0" encoding="UTF-8" standalone="no"?>
<svg width="187px" height="61px" viewBox="0 0 187 61" version="1.1" xmlns="http://www.w3.org/2000/svg" xmlns:xlink="http://www.w3.org/1999/xlink">
    <!-- Generator: Sketch 3.8.3 (29802) - http://www.bohemiancoding.com/sketch -->
    <title>tai-chi</title>
    <desc>Created with Sketch.</desc>
    <defs></defs>
    <g id="Page-1" stroke="none" stroke-width="1" fill="none" fill-rule="evenodd">
        <g id="Artboard" transform="translate(-1070.000000, -1127.000000)" fill="#666666">
            <path d="M1075.064,1129.736 L1071.928,1132.744 C1076.6,1136.328 1080.248,1139.72 1082.936,1142.92 L1086.2,1139.72 C1083.192,1136.392 1079.48,1133.064 1075.064,1129.736 L1075.064,1129.736 Z M1112.504,1186.248 L1127.032,1186.248 L1128.12,1181.64 C1126.456,1181.768 1124.088,1181.832 1121.016,1181.896 C1117.88,1181.96 1114.808,1182.024 1111.864,1182.024 C1106.808,1182.024 1102.584,1181.96 1099.192,1181.896 C1095.352,1181.768 1092.472,1181.256 1090.424,1180.36 C1088.632,1179.528 1086.968,1178.184 1085.432,1176.328 C1084.856,1175.688 1084.344,1175.24 1083.832,1174.856 L1083.832,1150.92 L1070.456,1150.92 L1070.456,1155.144 L1079.544,1155.144 L1079.544,1174.6 C1076.92,1175.752 1073.912,1179.016 1070.52,1184.392 L1073.976,1187.528 C1077.496,1181.64 1080.056,1178.696 1081.592,1178.696 C1082.36,1178.696 1083.192,1179.208 1084.088,1180.296 C1086.072,1182.6 1088.376,1184.2 1090.936,1184.968 C1093.496,1185.672 1096.888,1186.056 1101.048,1186.12 C1105.144,1186.184 1108.984,1186.248 1112.504,1186.248 L1112.504,1186.248 Z M1101.048,1135.88 L1098.232,1138.632 C1101.368,1140.296 1104.184,1142.024 1106.616,1143.752 L1090.616,1143.752 L1090.616,1177.8 L1094.968,1177.8 L1094.968,1166.6 L1105.656,1166.6 L1105.656,1177.608 L1109.944,1177.608 L1109.944,1166.6 L1120.696,1166.6 L1120.696,1171.4 C1120.696,1172.808 1119.928,1173.576 1118.392,1173.576 L1113.336,1173.384 L1114.36,1177.288 L1119.672,1177.288 C1123.256,1177.288 1125.048,1175.624 1125.048,1172.36 L1125.048,1143.752 L1112.376,1143.752 L1111.352,1142.92 C1115.832,1140.488 1119.992,1137.608 1123.832,1134.28 L1123.832,1130.952 L1089.208,1130.952 L1089.208,1134.856 L1117.624,1134.856 C1114.808,1137.032 1111.736,1138.952 1108.408,1140.68 C1106.232,1139.08 1103.736,1137.48 1101.048,1135.88 L1101.048,1135.88 Z M1094.968,1157.192 L1105.656,1157.192 L1105.656,1162.824 L1094.968,1162.824 L1094.968,1157.192 Z M1109.944,1157.192 L1120.696,1157.192 L1120.696,1162.824 L1109.944,1162.824 L1109.944,1157.192 Z M1120.696,1153.352 L1109.944,1153.352 L1109.944,1147.592 L1120.696,1147.592 L1120.696,1153.352 Z M1105.656,1153.352 L1094.968,1153.352 L1094.968,1147.592 L1105.656,1147.592 L1105.656,1153.352 Z M1153.912,1128.712 L1153.912,1134.344 L1136.632,1134.344 L1136.632,1138.568 L1153.912,1138.568 L1153.912,1144.776 C1148.792,1146.184 1142.328,1147.208 1134.584,1147.72 L1135.224,1152.136 C1143.032,1151.24 1149.24,1150.088 1153.912,1148.68 L1153.912,1151.56 L1158.328,1151.56 L1158.328,1128.712 L1153.912,1128.712 Z M1186.168,1131.08 C1181.56,1132.936 1176.44,1134.472 1170.808,1135.688 L1170.808,1128.584 L1166.328,1128.584 L1166.328,1146.184 C1166.328,1149.768 1168.12,1151.56 1171.768,1151.56 L1183.864,1151.56 C1186.168,1151.56 1187.896,1151.112 1188.984,1150.344 C1190.136,1149.384 1190.968,1146.76 1191.416,1142.408 L1187.384,1141.064 C1187.128,1144.136 1186.68,1146.056 1185.976,1146.696 C1185.4,1147.208 1184.44,1147.464 1183.096,1147.464 L1173.048,1147.464 C1171.512,1147.464 1170.808,1146.696 1170.808,1145.288 L1170.808,1139.784 C1177.592,1138.376 1183.544,1136.584 1188.728,1134.536 L1186.168,1131.08 Z M1148.216,1167.688 L1178.616,1167.688 L1178.616,1173.064 L1148.216,1173.064 L1148.216,1167.688 Z M1178.616,1163.848 L1148.216,1163.848 L1148.216,1158.6 L1178.616,1158.6 L1178.616,1163.848 Z M1148.216,1176.84 L1178.616,1176.84 L1178.616,1180.936 C1178.616,1182.472 1177.72,1183.24 1176.056,1183.24 L1168.632,1183.048 L1169.784,1187.272 L1177.464,1187.272 C1181.24,1187.272 1183.16,1185.48 1183.16,1181.96 L1183.16,1154.696 L1143.672,1154.696 L1143.672,1187.336 L1148.216,1187.336 L1148.216,1176.84 Z M1224.504,1187.336 C1228.152,1187.336 1230.008,1185.48 1230.008,1181.768 L1230.008,1177.096 L1253.944,1177.096 L1253.944,1173.256 L1230.008,1173.256 L1230.008,1168.776 L1247.416,1168.776 L1247.416,1165 L1230.008,1165 L1230.008,1159.944 C1234.104,1159.432 1237.752,1158.728 1241.08,1157.768 C1244.344,1161.096 1248.632,1164.232 1253.944,1167.24 L1256.824,1163.656 C1249.272,1159.944 1243.832,1155.784 1240.504,1151.176 L1254.52,1151.176 L1254.52,1147.016 L1222.968,1147.016 C1223.864,1145.48 1224.696,1143.944 1225.464,1142.28 L1251,1142.28 L1251,1138.184 L1227.064,1138.184 C1228.152,1135.176 1228.984,1131.976 1229.624,1128.52 L1225.08,1127.944 C1224.504,1131.528 1223.608,1134.984 1222.392,1138.184 L1203,1138.184 L1203,1142.28 L1220.664,1142.28 C1219.832,1143.944 1218.936,1145.48 1217.912,1147.016 L1199.48,1147.016 L1199.48,1151.176 L1214.648,1151.176 C1210.104,1156.296 1204.152,1160.392 1196.728,1163.336 L1199.224,1167.24 C1204.088,1165.064 1208.504,1162.376 1212.408,1159.176 L1212.984,1160.904 C1217.4,1160.904 1221.56,1160.712 1225.464,1160.392 L1225.464,1165 L1206.52,1165 L1206.52,1168.776 L1225.464,1168.776 L1225.464,1173.256 L1199.736,1173.256 L1199.736,1177.096 L1225.464,1177.096 L1225.464,1180.616 C1225.464,1182.344 1224.568,1183.24 1222.904,1183.24 C1220.472,1183.24 1217.848,1183.112 1215.096,1182.92 L1216.056,1187.336 L1224.504,1187.336 Z M1220.152,1151.176 L1235.896,1151.176 C1236.536,1152.264 1237.368,1153.416 1238.328,1154.632 C1231.864,1156.168 1223.992,1157 1214.712,1157.192 C1216.632,1155.4 1218.488,1153.352 1220.152,1151.176 L1220.152,1151.176 Z M1212.024,1128.008 L1208.056,1129.352 C1209.848,1131.656 1211.512,1134.28 1213.048,1137.224 L1216.824,1135.56 C1215.416,1132.872 1213.816,1130.376 1212.024,1128.008 L1212.024,1128.008 Z M1242.744,1128.136 C1241.336,1130.952 1239.608,1133.448 1237.432,1135.624 L1240.824,1137.544 C1243.128,1135.24 1245.112,1132.552 1246.648,1129.544 L1242.744,1128.136 Z" id="tai-chi"></path>
        </g>
    </g>
</svg>