<?xml version="1.0" encoding="UTF-8" standalone="no"?>
<svg width="188px" height="61px" viewBox="0 0 188 61" version="1.1" xmlns="http://www.w3.org/2000/svg" xmlns:xlink="http://www.w3.org/1999/xlink">
    <!-- Generator: Sketch 3.8.3 (29802) - http://www.bohemiancoding.com/sketch -->
    <title>tong-bei</title>
    <desc>Created with Sketch.</desc>
    <defs></defs>
    <g id="Page-1" stroke="none" stroke-width="1" fill="none" fill-rule="evenodd">
        <g id="Artboard" transform="translate(-755.000000, -1127.000000)" fill="#666666">
            <path d="M756.84,1142.344 L756.84,1146.824 L780.968,1146.824 C777.96,1164.104 769.384,1176.264 755.304,1183.432 L758.184,1187.272 C764.712,1183.688 770.216,1179.08 774.632,1173.448 C778.024,1176.904 781.416,1180.872 784.808,1185.416 L788.072,1182.152 C783.976,1177.032 780.264,1172.936 777.064,1169.992 C780.52,1164.616 783.016,1158.472 784.68,1151.496 C789.672,1166.92 798.696,1178.888 811.752,1187.336 L814.632,1183.624 C801.192,1175.048 792.104,1162.824 787.496,1146.824 L813.224,1146.824 L813.224,1142.344 L786.28,1142.344 C786.664,1138.824 786.92,1135.112 786.92,1131.144 L786.92,1128.968 L782.184,1128.968 L782.184,1132.168 C782.184,1135.688 781.992,1139.08 781.608,1142.344 L756.84,1142.344 Z M832.744,1155.016 C834.152,1157.448 835.816,1160.456 837.736,1164.168 L840.232,1160.328 C837.736,1156.552 835.24,1153.096 832.744,1150.024 L832.744,1145.608 L839.272,1145.608 L839.272,1141.32 L832.744,1141.32 L832.744,1128.712 L828.264,1128.712 L828.264,1141.32 L820.712,1141.32 L820.712,1145.608 L828.264,1145.608 C826.472,1153.672 823.528,1160.904 819.368,1167.176 L821.352,1172.232 C824.168,1167.368 826.472,1161.992 828.264,1156.104 L828.264,1187.208 L832.744,1187.208 L832.744,1155.016 Z M841.704,1146.44 L841.704,1168.584 L853.288,1168.584 L853.288,1146.44 L841.704,1146.44 Z M849.576,1165.064 L845.16,1165.064 L845.16,1149.896 L849.576,1149.896 L849.576,1165.064 Z M839.08,1181 L839.08,1185.224 L877.992,1185.224 L877.992,1181 L839.08,1181 Z M865.384,1152.456 L862.696,1155.08 C864.616,1157.64 866.408,1160.2 868.072,1162.76 C866.408,1166.152 864.424,1169.096 862.056,1171.656 L864.552,1174.984 C866.792,1172.68 868.776,1169.864 870.504,1166.664 C872.04,1169.224 873.448,1171.848 874.728,1174.472 L877.608,1171.592 C876.072,1168.584 874.344,1165.576 872.424,1162.568 C874.024,1158.6 875.304,1154.056 876.2,1148.872 L876.2,1145.736 L864.168,1145.736 L864.168,1149.512 L872.232,1149.512 C871.592,1152.712 870.824,1155.784 869.8,1158.6 C868.392,1156.552 866.92,1154.504 865.384,1152.456 L865.384,1152.456 Z M844.776,1131.144 L844.776,1135.24 L866.472,1135.24 C864.36,1137.032 861.224,1139.272 857,1142.088 L857,1171.016 C857,1172.936 856.104,1173.96 854.312,1173.96 C852.904,1173.96 851.56,1173.896 850.344,1173.832 L851.368,1177.672 L855.784,1177.672 C859.112,1177.672 860.84,1175.88 860.84,1172.424 L860.84,1144.072 C864.808,1141.192 868.328,1138.248 871.528,1135.24 L871.528,1131.144 L844.776,1131.144 Z M910.504,1187.336 C914.152,1187.336 916.008,1185.48 916.008,1181.768 L916.008,1177.096 L939.944,1177.096 L939.944,1173.256 L916.008,1173.256 L916.008,1168.776 L933.416,1168.776 L933.416,1165 L916.008,1165 L916.008,1159.944 C920.104,1159.432 923.752,1158.728 927.08,1157.768 C930.344,1161.096 934.632,1164.232 939.944,1167.24 L942.824,1163.656 C935.272,1159.944 929.832,1155.784 926.504,1151.176 L940.52,1151.176 L940.52,1147.016 L908.968,1147.016 C909.864,1145.48 910.696,1143.944 911.464,1142.28 L937,1142.28 L937,1138.184 L913.064,1138.184 C914.152,1135.176 914.984,1131.976 915.624,1128.52 L911.08,1127.944 C910.504,1131.528 909.608,1134.984 908.392,1138.184 L889,1138.184 L889,1142.28 L906.664,1142.28 C905.832,1143.944 904.936,1145.48 903.912,1147.016 L885.48,1147.016 L885.48,1151.176 L900.648,1151.176 C896.104,1156.296 890.152,1160.392 882.728,1163.336 L885.224,1167.24 C890.088,1165.064 894.504,1162.376 898.408,1159.176 L898.984,1160.904 C903.4,1160.904 907.56,1160.712 911.464,1160.392 L911.464,1165 L892.52,1165 L892.52,1168.776 L911.464,1168.776 L911.464,1173.256 L885.736,1173.256 L885.736,1177.096 L911.464,1177.096 L911.464,1180.616 C911.464,1182.344 910.568,1183.24 908.904,1183.24 C906.472,1183.24 903.848,1183.112 901.096,1182.92 L902.056,1187.336 L910.504,1187.336 Z M906.152,1151.176 L921.896,1151.176 C922.536,1152.264 923.368,1153.416 924.328,1154.632 C917.864,1156.168 909.992,1157 900.712,1157.192 C902.632,1155.4 904.488,1153.352 906.152,1151.176 L906.152,1151.176 Z M898.024,1128.008 L894.056,1129.352 C895.848,1131.656 897.512,1134.28 899.048,1137.224 L902.824,1135.56 C901.416,1132.872 899.816,1130.376 898.024,1128.008 L898.024,1128.008 Z M928.744,1128.136 C927.336,1130.952 925.608,1133.448 923.432,1135.624 L926.824,1137.544 C929.128,1135.24 931.112,1132.552 932.648,1129.544 L928.744,1128.136 Z" id="tong-bei"></path>
        </g>
    </g>
</svg>