<?xml version="1.0" encoding="UTF-8" standalone="no"?>
<svg width="123px" height="60px" viewBox="0 0 123 60" version="1.1" xmlns="http://www.w3.org/2000/svg" xmlns:xlink="http://www.w3.org/1999/xlink">
    <!-- Generator: Sketch 3.8.3 (29802) - http://www.bohemiancoding.com/sketch -->
    <title>wing-chun</title>
    <desc>Created with Sketch.</desc>
    <defs></defs>
    <g id="Page-1" stroke="none" stroke-width="1" fill="none" fill-rule="evenodd">
        <g id="Artboard" transform="translate(-463.000000, -1128.000000)" fill="#666666">
            <path d="M481.504,1164.872 L464.928,1164.872 L464.928,1186.696 L469.216,1186.696 L469.216,1183.304 L481.504,1183.304 L481.504,1164.872 Z M469.216,1179.208 L469.216,1168.904 L477.344,1168.904 L477.344,1179.208 L469.216,1179.208 Z M463.648,1137.224 L463.648,1141.32 L482.912,1141.32 L482.912,1137.224 L473.44,1137.224 L476.128,1136.264 C475.36,1133.896 474.336,1131.336 473.056,1128.648 L468.64,1129.8 C469.92,1132.232 471.072,1134.664 472.032,1137.224 L463.648,1137.224 Z M465.504,1146.632 L465.504,1150.6 L481.056,1150.6 L481.056,1146.632 L465.504,1146.632 Z M465.504,1155.528 L465.504,1159.496 L481.056,1159.496 L481.056,1155.528 L465.504,1155.528 Z M499.936,1186.952 C503.328,1186.952 505.056,1185.224 505.056,1181.768 L505.056,1158.984 C508.32,1167.432 512.864,1174.728 518.624,1180.808 L521.696,1177.16 C516.384,1172.296 512.096,1166.28 508.768,1159.112 C513.056,1156.36 516.832,1152.328 520.16,1147.016 L516.704,1144.136 C513.952,1148.872 510.816,1152.648 507.232,1155.464 C506.4,1153.416 505.696,1151.304 505.056,1149.128 L505.056,1141.128 L487.968,1141.128 L487.968,1145.352 L500.576,1145.352 L500.576,1180.424 C500.576,1181.96 499.872,1182.728 498.592,1182.728 L493.28,1182.536 L494.432,1186.952 L499.936,1186.952 Z M483.872,1154.888 L483.872,1158.984 L493.28,1158.984 C491.104,1167.112 487.264,1173.384 481.632,1177.8 L484.384,1181.448 C490.912,1176.2 495.328,1168.456 497.568,1158.28 L497.568,1154.888 L483.872,1154.888 Z M496.928,1128.52 L495.008,1132.168 C500,1133.768 504.864,1136.072 509.472,1139.016 L511.072,1134.92 C506.592,1132.104 501.856,1129.992 496.928,1128.52 L496.928,1128.52 Z M530.848,1132.872 L530.848,1136.904 L551.584,1136.904 C551.072,1138.568 550.496,1140.232 549.92,1141.896 L533.984,1141.896 L533.984,1145.928 L548.192,1145.928 C547.36,1147.656 546.464,1149.32 545.504,1150.92 L528.736,1150.92 L528.736,1155.016 L542.624,1155.016 C538.272,1160.456 532.832,1164.424 526.24,1166.984 L528.544,1170.824 C532.512,1169.16 536.224,1166.984 539.552,1164.296 L539.552,1187.656 L544.096,1187.656 L544.096,1184.904 L568.288,1184.904 L568.288,1187.528 L572.832,1187.528 L572.832,1163.272 C575.776,1166.024 579.424,1168.456 583.904,1170.568 L585.888,1166.472 C579.04,1163.656 573.984,1159.816 570.784,1155.016 L583.264,1155.016 L583.264,1150.92 L550.624,1150.92 C551.52,1149.32 552.352,1147.656 553.12,1145.928 L578.208,1145.928 L578.208,1141.896 L554.72,1141.896 C555.296,1140.36 555.872,1138.696 556.384,1136.904 L581.152,1136.904 L581.152,1132.872 L557.472,1132.872 C557.792,1131.464 558.112,1130.056 558.368,1128.648 L553.632,1128.2 L552.672,1132.872 L530.848,1132.872 Z M569.952,1160.328 L543.84,1160.328 C545.312,1158.728 546.72,1156.936 548.064,1155.016 L566.304,1155.016 C567.264,1156.808 568.48,1158.6 569.952,1160.328 L569.952,1160.328 Z M544.096,1180.808 L544.096,1174.536 L568.288,1174.536 L568.288,1180.808 L544.096,1180.808 Z M544.096,1170.504 L544.096,1164.36 L568.288,1164.36 L568.288,1170.504 L544.096,1170.504 Z" id="wing-chun"></path>
        </g>
    </g>
</svg>